<svg width="75" height="75" viewBox="0 0 75 75" fill="none" xmlns="http://www.w3.org/2000/svg">
<path d="M34.6018 2.49869C36.2672 1.06288 38.7328 1.06287 40.3982 2.49868L46.6142 7.85786C47.4354 8.56591 48.4875 8.94883 49.5717 8.93432L57.7783 8.82452C59.9769 8.79511 61.8657 10.38 62.2185 12.5503L63.5355 20.6513C63.7095 21.7216 64.2692 22.6912 65.1091 23.377L71.4663 28.5679C73.1695 29.9587 73.5976 32.3868 72.4728 34.2762L68.2745 41.3284C67.7198 42.2601 67.5254 43.3627 67.7279 44.428L69.2611 52.4908C69.6719 54.6509 68.4391 56.7862 66.3629 57.5106L58.6138 60.2142C57.5899 60.5714 56.7323 61.291 56.2027 62.2373L52.1946 69.3992C51.1207 71.3181 48.8038 72.1613 46.7478 71.3817L39.0737 68.4717C38.0598 68.0873 36.9402 68.0873 35.9263 68.4717L28.2522 71.3817C26.1962 72.1613 23.8793 71.3181 22.8055 69.3992L18.7973 62.2373C18.2677 61.291 17.4101 60.5714 16.3862 60.2142L8.63706 57.5106C6.56093 56.7862 5.32812 54.6509 5.73888 52.4908L7.27206 44.428C7.47463 43.3627 7.28022 42.2601 6.72553 41.3284L2.52717 34.2762C1.40236 32.3868 1.83051 29.9587 3.5337 28.5679L9.89085 23.377C10.7308 22.6912 11.2905 21.7216 11.4645 20.6513L12.7815 12.5504C13.1343 10.38 15.0231 8.79511 17.2217 8.82452L25.4283 8.93432C26.5125 8.94883 27.5646 8.56591 28.3858 7.85786L34.6018 2.49869Z" fill="#0CC0A0"/>
<path d="M37.5722 41.0118L39.0714 42.572C39.4649 42.9816 40.1201 42.9816 40.5136 42.572L51.9484 30.6712C52.5793 30.0146 53.6297 30.0146 54.2605 30.6712C54.8568 31.2917 54.8568 32.2723 54.2605 32.8928L41.2346 46.4495C40.4477 47.2686 39.1373 47.2686 38.3503 46.4495L30.853 38.6467C30.2568 38.0262 30.2568 37.0456 30.853 36.4251C31.4839 35.7685 32.5343 35.7685 33.1651 36.4251L35.3504 38.6994L37.5722 41.0101V41.0118ZM38.6396 37.4914C38.0451 36.8726 38.045 35.8949 38.6395 35.2762L44.2092 29.4783C44.8382 28.8235 45.8857 28.8234 46.5149 29.4782C47.1094 30.0969 47.1094 31.0746 46.515 31.6934L40.9453 37.4912C40.3162 38.1461 39.2687 38.1461 38.6396 37.4914ZM32.0636 44.5281C32.6595 45.1482 32.6595 46.128 32.0636 46.7481C31.4332 47.4042 30.3836 47.4042 29.7531 46.7481L21.9689 38.6467C21.3727 38.0262 21.3727 37.0456 21.9689 36.4251C22.5998 35.7685 23.6502 35.7685 24.2811 36.4251L25.3468 37.5343L25.3452 37.5359L32.0636 44.5281Z" fill="white"/>
</svg>
