<svg width="22" height="22" viewBox="0 0 22 22" fill="none" xmlns="http://www.w3.org/2000/svg">
<path d="M8.88545 13.5385C8.61426 13.5385 8.34772 13.4086 8.18441 13.1674L0.146017 1.32132C-0.116289 0.934631 -0.0155974 0.408325 0.371092 0.146017C0.757358 -0.11629 1.28408 -0.0155975 1.54639 0.371094L9.58479 12.2172C9.84709 12.6039 9.7464 13.1302 9.35971 13.3925C9.21417 13.4915 9.04918 13.5385 8.88545 13.5385V13.5385Z" fill="#B4B9C7"/>
<path d="M13.1146 13.5385C12.9509 13.5385 12.7859 13.4915 12.6403 13.3925C12.2536 13.1302 12.1529 12.6039 12.4152 12.2172L20.4536 0.371094C20.7159 -0.0155975 21.2427 -0.11629 21.6289 0.146017C22.0156 0.408325 22.1163 0.934631 21.854 1.32132L13.8156 13.1674C13.6523 13.4086 13.3858 13.5385 13.1146 13.5385V13.5385Z" fill="#B4B9C7"/>
<path d="M8.88466 21.9995C8.41759 21.9995 8.03851 21.6204 8.03851 21.1534V12.6919C8.03851 12.2248 8.41759 11.8457 8.88466 11.8457C9.35173 11.8457 9.73081 12.2248 9.73081 12.6919V21.1534C9.73081 21.6204 9.35173 21.9995 8.88466 21.9995Z" fill="#B4B9C7"/>
<path d="M13.1154 18.474C12.6483 18.474 12.2692 18.095 12.2692 17.6279V12.6919C12.2692 12.2248 12.6483 11.8457 13.1154 11.8457C13.5824 11.8457 13.9615 12.2248 13.9615 12.6919V17.6279C13.9615 18.095 13.5824 18.474 13.1154 18.474Z" fill="#B4B9C7"/>
<path d="M21.1539 1.6923H0.84633C0.379257 1.6923 0.000183105 1.31323 0.000183105 0.846152C0.000183105 0.379076 0.379257 0 0.84633 0H21.1539C21.6209 0 22 0.379076 22 0.846152C22 1.31323 21.6209 1.6923 21.1539 1.6923Z" fill="#B4B9C7"/>
<path d="M8.88497 22.0009C8.64255 22.0009 8.40182 21.8973 8.23471 21.6963C7.93559 21.3371 7.98382 20.804 8.34301 20.5049L12.5737 16.9794C12.9329 16.6799 13.466 16.729 13.7651 17.0877C14.0642 17.4469 14.016 17.98 13.6568 18.2791L9.42608 21.8046C9.26785 21.9366 9.07578 22.0009 8.88497 22.0009Z" fill="#B4B9C7"/>
</svg>
