<svg width="169" height="38" viewBox="0 0 169 38" fill="none" xmlns="http://www.w3.org/2000/svg">
<path d="M44.0807 20.9469C44.0807 20.9469 42.281 23.8906 38.9161 25.5949C38.9161 25.5949 36.6437 26.8265 32.1425 26.8504H26.2719V27.041C26.2678 27.1721 26.2678 27.3071 26.264 27.4383C26.2521 27.8832 25.9263 28.078 25.545 27.8594C23.7531 26.8344 21.9695 25.8055 20.1896 24.7725C19.8401 24.57 19.8401 24.1567 20.1896 23.9541C21.9774 22.9213 23.7613 21.8883 25.5529 20.8713C25.6839 20.7997 25.9342 20.7918 26.0455 20.8713C26.1687 20.9625 26.2522 21.189 26.2601 21.3559C26.2641 21.483 26.2679 21.6101 26.2679 21.7373V21.8843H31.7413C31.8406 21.8883 32.0075 21.8923 32.2299 21.8883C33.8071 21.8605 38.1097 21.4273 39.9808 17.7446C39.9808 17.7446 42.4003 13.1521 39.7346 9.19126C39.7346 9.19126 37.5455 5.94956 33.7238 5.5998H11.6431C4.49204 7.01811 4.90524 14.0499 4.90524 14.177L4.8933 35.1573C4.8933 36.5001 3.80469 37.5847 2.46583 37.5847C1.12696 37.5847 0.0385745 36.5001 0.0385745 35.1573V14.2724C0.0385745 14.2724 -0.474007 9.17526 2.26323 5.57986C2.26323 5.57986 5.62831 0.776744 12.0403 0.40332H33.8906C33.8906 0.40332 40.6682 0.522427 44.2199 6.36243C44.2199 6.36243 48.5224 13.4225 44.0807 20.9469Z" fill="#2A4F6D"/>
<path d="M36.2968 13.9746C34.517 15.0114 32.7332 16.0403 30.9415 17.0614C30.56 17.2799 30.2343 17.0853 30.2224 16.6443C30.2184 16.5092 30.2184 16.3741 30.2144 16.243V16.0881H24.5731C24.5413 16.0881 24.5095 16.0881 24.4817 16.084H24.4579C20.4136 16.2033 18.4432 18.1658 18.4432 18.1658C14.4068 21.5665 15.9443 26.8105 15.9443 26.8105C17.4749 32.3346 22.4035 32.6386 22.4035 32.6386L32.6537 32.6345C34.0085 32.6345 35.105 33.731 35.105 35.0897V35.1454C35.105 36.5002 34.0085 37.5966 32.6537 37.5966H24.5215C17.8959 37.5966 15.4691 35.4972 13.354 33.3341C11.6564 31.5406 10.8624 28.7546 10.7796 27.4183C10.5971 24.475 10.6048 18.7101 10.7796 15.6867C11.018 11.571 15.241 11.1181 15.241 11.1181H25.0459L25.0498 11.1221H30.2184V10.9393C30.2184 10.8123 30.2224 10.6851 30.2263 10.5579C30.2343 10.3911 30.3177 10.1687 30.4408 10.0772C30.552 9.99773 30.8024 10.0056 30.9335 10.0772C32.7252 11.0902 34.5089 12.1231 36.2967 13.1562C36.6462 13.3588 36.6462 13.7759 36.2967 13.9746H36.2968Z" fill="#E57E38"/>
<path d="M62.1438 13.8693C62.4487 13.8693 62.711 13.7334 62.9308 13.4617C63.1502 13.1902 63.26 12.8609 63.26 12.474C63.26 12.0871 63.1502 11.7577 62.9308 11.4861C62.7112 11.2145 62.4488 11.0785 62.1438 11.0785H57.121V13.8692H62.1438V13.8693ZM57.121 15.0635V22.2406H53.7724V7.73047H62.1438C63.379 7.73047 64.4319 8.19365 65.3026 9.12016C66.1732 10.0465 66.6086 11.1646 66.6086 12.4743C66.6086 13.7839 66.1734 14.9002 65.3026 15.8228C64.6477 16.5222 63.8925 16.9576 63.0369 17.1285L66.6086 22.2407H62.1438L57.121 15.0637V15.0635Z" fill="#2A4F6D"/>
<path d="M69.1961 18.8921H80.3578V22.2407H69.2073L69.1961 18.8921ZM69.1961 13.3112H78.6947V16.6597H69.1961V13.3112ZM80.3578 7.73047L78.6836 11.0788H69.1961V7.73047H80.3578Z" fill="#2A4F6D"/>
<path d="M82.9469 18.8921H94.1087V22.2407H82.9582L82.9469 18.8921ZM82.9469 13.3112H92.4455V16.6597H82.9469V13.3112ZM94.1087 7.73047L92.4345 11.0788H82.9471V7.73047H94.1088H94.1087Z" fill="#2A4F6D"/>
<path d="M105.069 13.8693C105.374 13.8693 105.636 13.7334 105.856 13.4617C106.075 13.1902 106.185 12.8609 106.185 12.474C106.185 12.0871 106.075 11.7577 105.856 11.4861C105.636 11.2145 105.374 11.0785 105.069 11.0785H100.046V13.8692H105.069V13.8693ZM100.046 15.0635V22.2406H96.6977V7.73047H105.069C106.304 7.73047 107.357 8.19365 108.228 9.12016C109.099 10.0465 109.534 11.1646 109.534 12.4743C109.534 13.7839 109.099 14.9002 108.228 15.8228C107.573 16.5222 106.818 16.9576 105.962 17.1285L109.534 22.2407H105.069L100.046 15.0637L100.046 15.0635Z" fill="#E57E38"/>
<path d="M116.452 12.2231C115.797 12.9856 115.47 13.9066 115.47 14.9855C115.47 16.0644 115.797 16.9853 116.452 17.748C117.107 18.5108 117.895 18.892 118.818 18.892C119.741 18.892 120.529 18.5108 121.184 17.748C121.839 16.9853 122.167 16.0644 122.167 14.9855C122.167 13.9066 121.839 12.9856 121.184 12.2231C120.53 11.4602 119.741 11.0788 118.818 11.0788C117.895 11.0788 117.107 11.4602 116.452 12.2231ZM123.556 9.85667C124.862 11.2741 125.515 12.9839 125.515 14.9855C125.515 16.9871 124.862 18.6968 123.556 20.1144C122.25 21.5318 120.671 22.2406 118.818 22.2406C116.966 22.2406 115.386 21.5318 114.08 20.1144C112.774 18.6968 112.121 16.9871 112.121 14.9855C112.121 12.9839 112.774 11.2741 114.08 9.85667C115.386 8.4392 116.966 7.73047 118.818 7.73047C120.671 7.73047 122.25 8.4392 123.556 9.85667Z" fill="#E57E38"/>
<path d="M128.108 14.9855V7.73047H131.456V14.9855C131.456 16.0644 131.784 16.9856 132.439 17.748C133.093 18.5108 133.882 18.892 134.805 18.892C135.727 18.892 136.516 18.5108 137.171 17.748C137.826 16.9854 138.153 16.0644 138.153 14.9855V7.73047H141.502V14.9855C141.502 16.9871 140.849 18.6969 139.543 20.1144C138.237 21.5318 136.658 22.2406 134.805 22.2406C132.952 22.2406 131.373 21.5318 130.067 20.1144C128.761 18.6969 128.108 16.9871 128.108 14.9855H128.108Z" fill="#E57E38"/>
<path d="M147.993 11.0788H144.087V7.73047H155.248L153.574 11.0788H151.342V22.2407H148.004L147.993 11.0788Z" fill="#E57E38"/>
<path d="M157.837 18.8921H168.999V22.2407H157.849L157.838 18.8921H157.837ZM157.837 13.3112H167.336V16.6597H157.837V13.3112ZM168.999 7.73047L167.325 11.0788H157.838V7.73047H168.999H168.999Z" fill="#E57E38"/>
<path d="M75.1942 28.4176C75.1942 27.6846 74.6559 27.1566 73.9333 27.1566C73.2105 27.1566 72.6722 27.6846 72.6722 28.4176C72.6722 29.1508 73.2105 29.6787 73.9333 29.6787C74.6559 29.6787 75.1942 29.1508 75.1942 28.4176ZM72.0007 28.4176C72.0007 27.3567 72.821 26.5723 73.9333 26.5723C75.0456 26.5723 75.8659 27.3513 75.8659 28.4176C75.8659 29.4839 75.0456 30.2631 73.9333 30.2631C72.8209 30.2631 72.0007 29.4788 72.0007 28.4176Z" fill="#2A4F6D"/>
<path d="M80.1778 26.625V30.2134H79.6294L77.6508 27.7835V30.2134H76.9894V26.625H77.5379L79.5166 29.0549V26.625H80.1778Z" fill="#2A4F6D"/>
<path d="M84.1053 27.1889H82.9158V26.625H85.9609V27.1889H84.7716V30.2134H84.1053V27.1889Z" fill="#2A4F6D"/>
<path d="M90.0576 26.625V30.2134H89.3912V28.6755H87.5356V30.2134H86.8693V26.625H87.5356V28.1066H89.3912V26.625H90.0576Z" fill="#2A4F6D"/>
<path d="M94.129 29.6547V30.2132H91.4379V26.625H94.0573V27.184H92.1042V28.1167H93.8368V28.6653H92.1042V29.6547H94.129Z" fill="#2A4F6D"/>
<path d="M98.5473 27.1889H97.7681V28.6191H98.5473C99.1317 28.6191 99.4341 28.3526 99.4341 27.9014C99.4341 27.4504 99.1317 27.1889 98.5473 27.1889ZM99.4495 30.2134L98.7164 29.1626C98.6703 29.1675 98.6241 29.1675 98.578 29.1675H97.7681V30.2134H97.1017V26.625H98.578C99.5213 26.625 100.106 27.1068 100.106 27.9014C100.106 28.4449 99.8287 28.8447 99.3415 29.0344L100.167 30.2134H99.4493H99.4495Z" fill="#2A4F6D"/>
<path d="M104.204 28.4176C104.204 27.6846 103.666 27.1566 102.943 27.1566C102.22 27.1566 101.682 27.6846 101.682 28.4176C101.682 29.1508 102.22 29.6787 102.943 29.6787C103.665 29.6787 104.204 29.1508 104.204 28.4176ZM101.01 28.4176C101.01 27.3567 101.83 26.5723 102.943 26.5723C104.055 26.5723 104.875 27.3513 104.875 28.4176C104.875 29.4839 104.055 30.2631 102.943 30.2631C101.83 30.2631 101.01 29.4788 101.01 28.4176Z" fill="#2A4F6D"/>
<path d="M108.043 28.8599L107.367 27.2913L106.695 28.8599H108.043H108.043ZM108.264 29.383H106.469L106.116 30.2134H105.429L107.044 26.625H107.7L109.32 30.2134H108.622L108.264 29.383Z" fill="#2A4F6D"/>
<path d="M111.73 29.6495C112.53 29.6495 113.048 29.1626 113.048 28.4193C113.048 27.6761 112.53 27.189 111.73 27.189H110.859V29.6496H111.73V29.6495ZM110.192 26.625H111.761C112.925 26.625 113.719 27.3429 113.719 28.4193C113.719 29.4957 112.924 30.2135 111.761 30.2135H110.192V26.6251V26.625Z" fill="#2A4F6D"/>
<path d="M117.391 27.1889H116.201V26.625H119.246V27.1889H118.057V30.2134H117.391V27.1889Z" fill="#2A4F6D"/>
<path d="M123.041 28.4176C123.041 27.6846 122.502 27.1566 121.78 27.1566C121.057 27.1566 120.518 27.6846 120.518 28.4176C120.518 29.1508 121.057 29.6787 121.78 29.6787C122.502 29.6787 123.041 29.1508 123.041 28.4176ZM119.847 28.4176C119.847 27.3567 120.667 26.5723 121.78 26.5723C122.892 26.5723 123.712 27.3513 123.712 28.4176C123.712 29.4839 122.892 30.2631 121.78 30.2631C120.667 30.2631 119.847 29.4788 119.847 28.4176Z" fill="#2A4F6D"/>
<path d="M126.359 29.8323L126.589 29.3147C126.877 29.5453 127.333 29.7093 127.773 29.7093C128.332 29.7093 128.568 29.5095 128.568 29.243C128.568 28.4688 126.436 28.9762 126.436 27.6435C126.436 27.0644 126.897 26.5723 127.881 26.5723C128.312 26.5723 128.763 26.6848 129.076 26.8899L128.866 27.4076C128.542 27.2178 128.189 27.1257 127.876 27.1257C127.322 27.1257 127.097 27.3411 127.097 27.6128C127.097 28.3767 129.224 27.8793 129.224 29.1968C129.224 29.771 128.758 30.2631 127.774 30.2631C127.215 30.2631 126.656 30.0889 126.359 29.8323Z" fill="#2A4F6D"/>
<path d="M130.26 28.6498V26.625H130.926V28.6244C130.926 29.3626 131.259 29.68 131.839 29.68C132.417 29.68 132.746 29.3626 132.746 28.6244V26.625H133.402V28.6498C133.402 29.6955 132.813 30.2648 131.833 30.2648C130.849 30.2648 130.26 29.6955 130.26 28.6498Z" fill="#2A4F6D"/>
<path d="M134.491 28.4176C134.491 27.3463 135.311 26.5723 136.413 26.5723C136.997 26.5723 137.5 26.7824 137.833 27.1719L137.402 27.5771C137.141 27.295 136.818 27.1566 136.444 27.1566C135.7 27.1566 135.162 27.6794 135.162 28.4176C135.162 29.1557 135.7 29.6787 136.444 29.6787C136.818 29.6787 137.141 29.5402 137.402 29.2534L137.833 29.6635C137.5 30.053 136.997 30.2631 136.408 30.2631C135.311 30.2631 134.491 29.4891 134.491 28.4176H134.491Z" fill="#2A4F6D"/>
<path d="M138.557 28.4176C138.557 27.3463 139.377 26.5723 140.479 26.5723C141.063 26.5723 141.566 26.7824 141.899 27.1719L141.468 27.5771C141.207 27.295 140.884 27.1566 140.51 27.1566C139.766 27.1566 139.228 27.6794 139.228 28.4176C139.228 29.1557 139.766 29.6787 140.51 29.6787C140.884 29.6787 141.207 29.5402 141.468 29.2534L141.899 29.6635C141.566 30.053 141.063 30.2631 140.474 30.2631C139.377 30.2631 138.557 29.4891 138.557 28.4176Z" fill="#2A4F6D"/>
<path d="M145.636 29.6547V30.2132H142.945V26.625H145.565V27.184H143.612V28.1167H145.344V28.6653H143.612V29.6547H145.636Z" fill="#2A4F6D"/>
<path d="M146.494 29.8323L146.724 29.3147C147.011 29.5453 147.468 29.7093 147.908 29.7093C148.467 29.7093 148.703 29.5095 148.703 29.243C148.703 28.4688 146.57 28.9762 146.57 27.6435C146.57 27.0644 147.032 26.5723 148.016 26.5723C148.447 26.5723 148.898 26.6848 149.211 26.8899L149 27.4076C148.677 27.2178 148.324 27.1257 148.011 27.1257C147.457 27.1257 147.232 27.3411 147.232 27.6128C147.232 28.3767 149.359 27.8793 149.359 29.1968C149.359 29.771 148.893 30.2631 147.909 30.2631C147.35 30.2631 146.791 30.0889 146.494 29.8323H146.494Z" fill="#2A4F6D"/>
<path d="M150.124 29.8323L150.355 29.3147C150.642 29.5453 151.098 29.7093 151.539 29.7093C152.098 29.7093 152.334 29.5095 152.334 29.243C152.334 28.4688 150.201 28.9762 150.201 27.6435C150.201 27.0644 150.663 26.5723 151.647 26.5723C152.077 26.5723 152.529 26.6848 152.841 26.8899L152.631 27.4076C152.308 27.2178 151.955 27.1257 151.642 27.1257C151.088 27.1257 150.863 27.3411 150.863 27.6128C150.863 28.3767 152.99 27.8793 152.99 29.1968C152.99 29.771 152.524 30.2631 151.539 30.2631C150.981 30.2631 150.422 30.0889 150.125 29.8323H150.124Z" fill="#2A4F6D"/>
</svg>
